<?xml version="1.0" encoding="UTF-8"?>
<svg version="1.1" xmlns="http://www.w3.org/2000/svg" width="232" height="311">
<path d="M0 0 C15.18 0 30.36 0 46 0 C46.70125 4.351875 47.4025 8.70375 48.125 13.1875 C49.66715334 22.31293125 51.33911631 31.34043679 53.875 40.25 C54.1117041 41.08813232 54.3484082 41.92626465 54.59228516 42.78979492 C55.83915928 46.94099338 57.29945119 50.75543031 59.2890625 54.609375 C61.41653025 58.77022327 63.13684074 62.37459221 64 67 C61.98572098 71.68212729 59.01187569 74.75927118 55.48535156 78.36669922 C53.03820996 81.05758964 51.21225605 84.06055259 49.375 87.1875 C48.82634277 88.1158667 48.82634277 88.1158667 48.26660156 89.06298828 C41.22260454 101.31355351 36.04717555 114.48625503 32 128 C31.75121094 128.75539062 31.50242188 129.51078125 31.24609375 130.2890625 C31.16488281 130.85367188 31.08367187 131.41828125 31 132 C31.99 132.99 31.99 132.99 33 134 C33.46798759 137.91939604 32.76199508 140.11803354 30.5 143.3125 C28.75302921 145.48898607 27.63301878 146.77171837 24.99609375 147.72265625 C22.7195193 147.8911314 21.15865467 147.74774017 19 147 C15.174174 143.50685452 13.01595748 140.07978741 12 135 C12.21269531 133.82179687 12.42539063 132.64359375 12.64453125 131.4296875 C13.35891438 126.1656219 11.82093521 121.92334574 10.0625 117 C9.7425708 116.07936768 9.4226416 115.15873535 9.09301758 114.21020508 C4.42292438 101.15319058 -2.07091056 89.3869134 -9.5078125 77.71875 C-9.89573975 77.10717041 -10.28366699 76.49559082 -10.68334961 75.86547852 C-11.99240764 73.92669924 -11.99240764 73.92669924 -13.75610352 72.08569336 C-15.53022461 70.10038499 -16.89025536 68.42376782 -18 66 C-17.69532115 62.48311362 -16.25693531 59.69002014 -14.6875 56.5625 C-13.88882036 54.78119543 -13.09591559 52.99729117 -12.30859375 51.2109375 C-11.71087158 49.88787598 -11.71087158 49.88787598 -11.10107422 48.53808594 C-5.60156555 35.86116973 -3.54827872 22.07607808 -1.40136719 8.52270508 C-0.9489947 5.67941739 -0.47331281 2.83987689 0 0 Z M17.125 63.0625 C15.34149956 66.13408409 15 68.45638757 15 72 C15.81041748 72.67313232 16.62083496 73.34626465 17.45581055 74.03979492 C21.22979604 78.43088734 20.72860646 82.36969448 20.70703125 87.98828125 C20.72215256 89.04661667 20.73727386 90.10495209 20.75285339 91.19535828 C20.79576159 94.56795506 20.80457181 97.93965734 20.8125 101.3125 C20.83564174 103.60223738 20.86100639 105.89195344 20.88867188 108.18164062 C20.95155495 113.78776887 20.98646443 119.39354712 21 125 C21.66 125.33 22.32 125.66 23 126 C23.99 125.505 23.99 125.505 25 125 C25 109.16 25 93.32 25 77 C26.32 76.34 27.64 75.68 29 75 C31.34522935 72.11487022 31.34522935 72.11487022 30.875 68.5 C30.28417561 65.05182724 30.28417561 65.05182724 28.375 63.0625 C24.59807179 61.37282159 20.81497548 60.9715139 17.125 63.0625 Z " fill="#235C60" transform="translate(95,89)"/>
<path d="M0 0 C21.78 0 43.56 0 66 0 C65 7 65 7 61 17 C42.52 17 24.04 17 5 17 C2 9 2 9 0 0 Z " fill="#265C5F" transform="translate(85,66)"/>
<path d="M0 0 C5.0531203 1.49722083 9.04017973 3.71137958 13.44799805 6.55517578 C16.77084019 8.6734002 20.11344904 10.60644553 23.625 12.3984375 C34.83912638 18.22552176 34.83912638 18.22552176 37.640625 22.5078125 C38.2093942 25.86776387 37.8405419 27.11287545 36 30 C31.74344512 33.51056072 27.18867422 36.12067852 22.34033203 38.72802734 C19.24129485 40.41235696 16.21605165 42.21016399 13.18530273 44.01367188 C11.10989666 45.24718325 9.02503953 46.46295467 6.9375 47.67578125 C3.44719435 49.70858702 0.04766961 51.86571833 -3.3359375 54.07104492 C-5 55 -5 55 -7 55 C-7 50.05 -7 45.1 -7 40 C-5.78183594 39.32453125 -4.56367188 38.6490625 -3.30859375 37.953125 C-1.68488306 37.05210635 -0.06118586 36.15106339 1.5625 35.25 C2.36236328 34.8065625 3.16222656 34.363125 3.98632812 33.90625 C8.67641157 31.30277511 13.34869505 28.67215909 18 26 C18 25.34 18 24.68 18 24 C17.00818726 23.48614746 17.00818726 23.48614746 15.99633789 22.96191406 C13.01088607 21.40520104 10.03677203 19.82796049 7.0625 18.25 C6.02158203 17.71117187 4.98066406 17.17234375 3.90820312 16.6171875 C2.42416992 15.82441406 2.42416992 15.82441406 0.91015625 15.015625 C-0.46450806 14.29294434 -0.46450806 14.29294434 -1.86694336 13.55566406 C-4 12 -4 12 -4.86914062 9.9453125 C-5.0523155 7.22229491 -4.08425039 5.97695178 -2.5625 3.75 C-2.08941406 3.04359375 -1.61632812 2.3371875 -1.12890625 1.609375 C-0.75636719 1.07828125 -0.38382813 0.5471875 0 0 Z " fill="#ED8166" transform="translate(154,172)"/>
<path d="M0 0 C0.83848804 1.45537568 1.67063934 2.91440373 2.5 4.375 C2.9640625 5.18710938 3.428125 5.99921875 3.90625 6.8359375 C5 9 5 9 5 11 C3.01220703 12.42041016 3.01220703 12.42041016 0.2578125 14.0390625 C-0.72574219 14.61914062 -1.70929688 15.19921875 -2.72265625 15.796875 C-4.28306641 16.70179688 -4.28306641 16.70179688 -5.875 17.625 C-6.90753906 18.23601562 -7.94007812 18.84703125 -9.00390625 19.4765625 C-16.72807966 24 -16.72807966 24 -19 24 C-19 24.66 -19 25.32 -19 26 C-17.91972534 26.40774658 -17.91972534 26.40774658 -16.81762695 26.82373047 C-14.03965423 27.98344562 -11.52427464 29.31728947 -8.91796875 30.8203125 C-7.98662109 31.35527344 -7.05527344 31.89023438 -6.09570312 32.44140625 C-5.13599609 32.99699219 -4.17628906 33.55257812 -3.1875 34.125 C-2.20845703 34.68832031 -1.22941406 35.25164062 -0.22070312 35.83203125 C2.18788035 37.21843539 4.59416689 38.6088286 7 40 C7 44.62 7 49.24 7 54 C6.01 54.495 6.01 54.495 5 55 C3.25439453 54.20239258 3.25439453 54.20239258 1.1328125 52.89453125 C0.3385083 52.41089111 -0.4557959 51.92725098 -1.27416992 51.42895508 C-2.56158081 50.62880981 -2.56158081 50.62880981 -3.875 49.8125 C-5.68081001 48.70803967 -7.4868053 47.60388224 -9.29296875 46.5 C-10.22802246 45.92507812 -11.16307617 45.35015625 -12.12646484 44.7578125 C-17.65994928 41.37284326 -23.24173478 38.06796578 -28.81396484 34.74731445 C-29.61141113 34.2699585 -30.40885742 33.79260254 -31.23046875 33.30078125 C-32.28850708 32.66910034 -32.28850708 32.66910034 -33.36791992 32.0246582 C-35 31 -35 31 -36 30 C-36.70670438 26.52266991 -36.81105285 23.46355686 -36 20 C-33.38505279 17.15330988 -30.23493573 15.6071516 -26.8125 13.875 C-24.97607751 12.86807151 -23.14014062 11.8602569 -21.3046875 10.8515625 C-20.40073242 10.37106445 -19.49677734 9.89056641 -18.56542969 9.39550781 C-15.08559535 7.5025945 -11.76420381 5.39705297 -8.4375 3.25 C-3.35772358 0 -3.35772358 0 0 0 Z " fill="#EE8266" transform="translate(82,172)"/>
<path d="M0 0 C2.85626921 2.80365373 4.81671454 5.43711997 5.2890625 9.46484375 C4.77681533 13.95738986 2.33941889 17.05594571 -1 20 C-3.91429795 21.05096515 -6.07787111 21.01220135 -9 20 C-12.77063944 16.55724225 -15.17185181 13.07240764 -16 8 C-15.0625 4.25 -15.0625 4.25 -13 1 C-8.50197348 -1.0368422 -4.67578116 -1.72800608 0 0 Z " fill="#EF7D65" transform="translate(123,216)"/>
<path d="M0 0 C2.1875 2.125 2.1875 2.125 2.5 4.76953125 C2.5 7.57132364 2.40089799 10.33185739 2.1875 13.125 C-5.08584843 12.96337003 -9.96800206 9.17281684 -15.8125 5.125 C-10.62234081 -1.46790492 -8.21064681 -2.55442345 0 0 Z " fill="#ED7E62" transform="translate(84.8125,210.875)"/>
<path d="M0 0 C2.87666142 2.82367028 4.71616222 5.67542368 5.5625 9.625 C4.80857966 12.80821921 3.18206469 14.61336675 1 17 C0.67 16.01 0.34 15.02 0 14 C0.66 13.01 1.32 12.02 2 11 C2.66 11 3.32 11 4 11 C3.505 10.21625 3.01 9.4325 2.5 8.625 C1 6 1 6 1 4 C-0.670625 4.2784375 -0.670625 4.2784375 -2.375 4.5625 C-6 5 -6 5 -8 4 C-10.60931266 4.89363605 -10.60931266 4.89363605 -13 6 C-12.74438677 8.3431213 -12.40729228 10.67843403 -12 13 C-11.34 13.33 -10.68 13.66 -10 14 C-9.67 14.99 -9.34 15.98 -9 17 C-8.01 17.33 -7.02 17.66 -6 18 C-6 18.66 -6 19.32 -6 20 C-9.00148136 19.67841271 -9.98205792 19.01846979 -12.125 16.8125 C-14.15565694 13.76651458 -15.34976832 11.61239825 -16 8 C-15.0625 4.25 -15.0625 4.25 -13 1 C-8.50197348 -1.0368422 -4.67578116 -1.72800608 0 0 Z " fill="#D6806F" transform="translate(123,216)"/>
<path d="M0 0 C5.6 1.46086957 5.6 1.46086957 7.4375 3.9375 C8 6 8 6 7 9 C7 9.99 7 10.98 7 12 C5.35 12.66 3.7 13.32 2 14 C1.67 13.34 1.34 12.68 1 12 C-1.01669827 10.86649466 -1.01669827 10.86649466 -3 10 C-3.36923077 4.58461538 -3.36923077 4.58461538 -1.5 1.625 C-1.005 1.08875 -0.51 0.5525 0 0 Z " fill="#EA7E65" transform="translate(154,172)"/>
<path d="M0 0 C0.33 0 0.66 0 1 0 C1.33 16.17 1.66 32.34 2 49 C-0.64 49.66 -3.28 50.32 -6 51 C-6.33 49.02 -6.66 47.04 -7 45 C-6.01 45.66 -5.02 46.32 -4 47 C-2.02 46.505 -2.02 46.505 0 46 C0 30.82 0 15.64 0 0 Z " fill="#315C5E" transform="translate(115,167)"/>
<path d="M0 0 C0.33 0 0.66 0 1 0 C1 12.54 1 25.08 1 38 C3.97 37.505 3.97 37.505 7 37 C6.505 39.475 6.505 39.475 6 42 C0.25 40.25 0.25 40.25 -2 38 C-1.34 38 -0.68 38 0 38 C0 25.46 0 12.92 0 0 Z " fill="#2C595C" transform="translate(120,176)"/>
<path d="M0 0 C3.8329232 1.46552946 7.29248755 3.14624378 11 5 C11 9.62 11 14.24 11 19 C10.34 19.33 9.68 19.66 9 20 C8.01 19.01 7.02 18.02 6 17 C6.99 17 7.98 17 9 17 C9 13.37 9 9.74 9 6 C7.68 5.67 6.36 5.34 5 5 C4.34 4.34 3.68 3.68 3 3 C1.68252676 2.30251417 0.35085807 1.63040043 -1 1 C-0.67 0.67 -0.34 0.34 0 0 Z " fill="#D78070" transform="translate(78,207)"/>
<path d="M0 0 C0.66 0.33 1.32 0.66 2 1 C2.33 0.67 2.66 0.34 3 0 C4.65 0.99 6.3 1.98 8 3 C6 4 6 4 2.5625 3.75 C-1.07707893 3.59371711 -1.07707893 3.59371711 -2.9375 6.125 C-4.10501612 9.28416126 -4.23312509 11.65854032 -4 15 C-4.99 15 -5.98 15 -7 15 C-7.33 12.36 -7.66 9.72 -8 7 C-6.68 6.34 -5.36 5.68 -4 5 C-4 4.34 -4 3.68 -4 3 C-2 1.375 -2 1.375 0 0 Z " fill="#265150" transform="translate(115,148)"/>
<path d="M0 0 C0.33 1.32 0.66 2.64 1 4 C-0.65 3.34 -2.3 2.68 -4 2 C-4 2.66 -4 3.32 -4 4 C-6.59748082 5.5333805 -9.20187896 7.05179668 -11.8125 8.5625 C-12.55048828 9.00013672 -13.28847656 9.43777344 -14.04882812 9.88867188 C-14.76103516 10.29794922 -15.47324219 10.70722656 -16.20703125 11.12890625 C-17.18893433 11.70233765 -17.18893433 11.70233765 -18.19067383 12.28735352 C-20 13 -20 13 -23 12 C-19.73565792 9.98925441 -16.46252137 7.99329608 -13.1875 6 C-12.25873047 5.42765625 -11.32996094 4.8553125 -10.37304688 4.265625 C-9.48037109 3.72421875 -8.58769531 3.1828125 -7.66796875 2.625 C-6.84578857 2.12226563 -6.0236084 1.61953125 -5.17651367 1.1015625 C-3 0 -3 0 0 0 Z " fill="#DA836D" transform="translate(82,172)"/>
<path d="M0 0 C1.32 0.33 2.64 0.66 4 1 C3.34 1 2.68 1 2 1 C2 1.66 2 2.32 2 3 C2.66 3 3.32 3 4 3 C3.67 4.65 3.34 6.3 3 8 C3.66 8 4.32 8 5 8 C6.32 10.31 7.64 12.62 9 15 C7.35 15.33 5.7 15.66 4 16 C2.68 10.72 1.36 5.44 0 0 Z " fill="#275757" transform="translate(85,66)"/>
<path d="M0 0 C1.32 1.32 2.64 2.64 4 4 C3.01 6.31 2.02 8.62 1 11 C0.34 11 -0.32 11 -1 11 C-1.66 12.32 -2.32 13.64 -3 15 C-2.69052329 13.06201479 -2.37731166 11.12462574 -2.0625 9.1875 C-1.88847656 8.10855469 -1.71445313 7.02960938 -1.53515625 5.91796875 C-1 3 -1 3 0 0 Z " fill="#245654" transform="translate(92,110)"/>
<path d="M0 0 C0.66 0.99 1.32 1.98 2 3 C1.09636719 2.98839844 0.19273438 2.97679687 -0.73828125 2.96484375 C-2.50751953 2.95130859 -2.50751953 2.95130859 -4.3125 2.9375 C-5.48425781 2.92589844 -6.65601562 2.91429687 -7.86328125 2.90234375 C-11.03059195 2.85100102 -11.03059195 2.85100102 -14 4 C-13.375 2.0625 -13.375 2.0625 -12 0 C-7.80202887 -1.24030965 -4.21296105 -1.14898938 0 0 Z " fill="#907368" transform="translate(123,216)"/>
<path d="M0 0 C1.65 0.33 3.3 0.66 5 1 C4.06981474 2.46300982 3.13055973 3.92025579 2.1875 5.375 C1.66542969 6.18710938 1.14335937 6.99921875 0.60546875 7.8359375 C-1 10 -1 10 -4 12 C-4 11.34 -4 10.68 -4 10 C-4.66 9.67 -5.32 9.34 -6 9 C-5.34 9 -4.68 9 -4 9 C-3.67 8.34 -3.34 7.68 -3 7 C-2.34 6.34 -1.68 5.68 -1 5 C-0.35232207 2.42938689 -0.35232207 2.42938689 0 0 Z " fill="#245152" transform="translate(154,154)"/>
<path d="M0 0 C2.0625 0.4375 2.0625 0.4375 4 1 C3.67 2.32 3.34 3.64 3 5 C3.66 5.33 4.32 5.66 5 6 C3.125 7.0625 3.125 7.0625 1 8 C0.34 7.67 -0.32 7.34 -1 7 C-1.04254356 5.00045254 -1.04080783 2.99958364 -1 1 C-0.67 0.67 -0.34 0.34 0 0 Z " fill="#2A646D" transform="translate(122,207)"/>
<path d="M0 0 C2 2 2 2 2.125 5.125 C2.08375 6.07375 2.0425 7.0225 2 8 C1.360625 8.28875 0.72125 8.5775 0.0625 8.875 C-2.15206079 9.82823451 -2.15206079 9.82823451 -3 12 C-3.66 11.67 -4.32 11.34 -5 11 C-3.35 7.37 -1.7 3.74 0 0 Z " fill="#235653" transform="translate(83,141)"/>
<path d="M0 0 C-0.99 0.66 -1.98 1.32 -3 2 C-3.33 2.99 -3.66 3.98 -4 5 C-4.66 5 -5.32 5 -6 5 C-6.33 5.99 -6.66 6.98 -7 8 C-7.66 7.67 -8.32 7.34 -9 7 C-9.625 4.9375 -9.625 4.9375 -10 3 C-3.375 -1.125 -3.375 -1.125 0 0 Z " fill="#F07E5F" transform="translate(72,181)"/>
<path d="M0 0 C1.66666667 0 3.33333333 0 5 0 C4.67 2.64 4.34 5.28 4 8 C4.99 8.33 5.98 8.66 7 9 C5.68 9.33 4.36 9.66 3 10 C1.5783681 6.6828589 0.60990891 3.55780196 0 0 Z " fill="#E5866A" transform="translate(116,226)"/>
<path d="M0 0 C3.63 0 7.26 0 11 0 C10.25 6.625 10.25 6.625 8 10 C7.67 8.02 7.34 6.04 7 4 C7.66 4 8.32 4 9 4 C8.67 3.34 8.34 2.68 8 2 C6.10466658 1.53476937 6.10466658 1.53476937 3.9375 1.375 C2.638125 1.25125 1.33875 1.1275 0 1 C0 0.67 0 0.34 0 0 Z " fill="#2C5855" transform="translate(140,66)"/>
<path d="M0 0 C-3.75 3 -3.75 3 -6 3 C-5.34 6.3 -4.68 9.6 -4 13 C-4.99 12.67 -5.98 12.34 -7 12 C-7.28528741 8.62092912 -7.44949482 5.36850337 -7 2 C-3.12962963 -1.56481481 -3.12962963 -1.56481481 0 0 Z " fill="#DA8172" transform="translate(53,190)"/>
<path d="M0 0 C1.485 0.99 1.485 0.99 3 2 C5.05396726 1.59070014 5.05396726 1.59070014 7 1 C7.66 1.33 8.32 1.66 9 2 C9 2.66 9 3.32 9 4 C6.36 4.66 3.72 5.32 1 6 C0.67 4.02 0.34 2.04 0 0 Z " fill="#436562" transform="translate(108,212)"/>
<path d="M0 0 C2 1.1875 2 1.1875 4 3 C4.5 5.375 4.5 5.375 4 8 C2 10.8125 2 10.8125 0 13 C-0.33 12.01 -0.66 11.02 -1 10 C-0.34 9.01 0.32 8.02 1 7 C1.66 7 2.32 7 3 7 C2.505 6.21625 2.01 5.4325 1.5 4.625 C0 2 0 2 0 0 Z " fill="#D98776" transform="translate(124,220)"/>
<path d="M0 0 C0.33 0 0.66 0 1 0 C1.33 3.63 1.66 7.26 2 11 C2.99 11.33 3.98 11.66 5 12 C3.35 12.66 1.7 13.32 0 14 C0 9.38 0 4.76 0 0 Z " fill="#D18471" transform="translate(147,213)"/>
<path d="M0 0 C1.65 0 3.3 0 5 0 C5.33 0.99 5.66 1.98 6 3 C7.65 3 9.3 3 11 3 C11.33 4.32 11.66 5.64 12 7 C7.69235185 5.43358249 3.93828536 3.31663844 0 1 C0 0.67 0 0.34 0 0 Z " fill="#DC8673" transform="translate(57,208)"/>
<path d="M0 0 C0.66 0.99 1.32 1.98 2 3 C1.195625 3.495 0.39125 3.99 -0.4375 4.5 C-3.98088338 7.95695939 -3.7573941 10.14788209 -4 15 C-4.33 15 -4.66 15 -5 15 C-5.76681614 6.22421525 -5.76681614 6.22421525 -3.88671875 3.22265625 C-2.5 1.875 -2.5 1.875 0 0 Z " fill="#265453" transform="translate(125,161)"/>
<path d="M0 0 C0.2475 0.61875 0.495 1.2375 0.75 1.875 C2.22770762 4.38710296 3.43955177 4.76107344 6 6 C6.33 6.99 6.66 7.98 7 9 C4.0280615 7.87548273 1.66559313 6.77706209 -1 5 C-0.67 3.35 -0.34 1.7 0 0 Z " fill="#CF8474" transform="translate(150,178)"/>
<path d="M0 0 C0.33 1.32 0.66 2.64 1 4 C-2.79557881 4 -4.62902617 3.49821059 -8 2 C-8 1.67 -8 1.34 -8 1 C-6.865625 1.020625 -5.73125 1.04125 -4.5625 1.0625 C-1.18424326 1.41577477 -1.18424326 1.41577477 0 0 Z " fill="#415959" transform="translate(126,213)"/>
<path d="M0 0 C0.99 0 1.98 0 3 0 C3 3.99904969 1.27413033 5.80200422 -1 9 C-2.0326802 6.21176345 -2.04509293 5.1322726 -1.0625 2.25 C-0.711875 1.5075 -0.36125 0.765 0 0 Z " fill="#265152" transform="translate(146,166)"/>
<path d="M0 0 C0.99 0 1.98 0 3 0 C3 2.64 3 5.28 3 8 C1.5 6.8125 1.5 6.8125 0 5 C-0.1875 2.3125 -0.1875 2.3125 0 0 Z " fill="#E2805F" transform="translate(116,220)"/>
<path d="M0 0 C0.66 0.33 1.32 0.66 2 1 C0.875 3 0.875 3 -1 5 C-4.1875 5.25 -4.1875 5.25 -7 5 C-2.25 1.125 -2.25 1.125 0 0 Z " fill="#E08875" transform="translate(163,203)"/>
<path d="M0 0 C2.97 0.33 5.94 0.66 9 1 C9 2.32 9 3.64 9 5 C5.54074837 3.7508258 2.85306797 2.32472205 0 0 Z " fill="#D98870" transform="translate(157,187)"/>
<path d="M0 0 C1.32 0.66 2.64 1.32 4 2 C-1.2734375 5.22265625 -1.2734375 5.22265625 -3 6 C-3.66 5.67 -4.32 5.34 -5 5 C-4.01 4.67 -3.02 4.34 -2 4 C-0.79117904 1.99983534 -0.79117904 1.99983534 0 0 Z " fill="#E18675" transform="translate(165,213)"/>
<path d="M0 0 C2.8290723 2.8290723 3.37611108 3.38144425 4 7 C2.02 7.99 2.02 7.99 0 9 C0 6.03 0 3.06 0 0 Z " fill="#CD8578" transform="translate(83,176)"/>
</svg>
